<?xml version="1.0" encoding="utf-8"?>
<!-- Generator: Adobe Illustrator 21.1.0, SVG Export Plug-In . SVG Version: 6.00 Build 0)  -->
<svg version="1.1"
	 id="svg8" inkscape:version="0.92.2 (5c3e80d, 2017-08-06)" sodipodi:docname="CameraButtonStand_BV.svg" xmlns:cc="http://creativecommons.org/ns#" xmlns:dc="http://purl.org/dc/elements/1.1/" xmlns:inkscape="http://www.inkscape.org/namespaces/inkscape" xmlns:rdf="http://www.w3.org/1999/02/22-rdf-syntax-ns#" xmlns:sodipodi="http://sodipodi.sourceforge.net/DTD/sodipodi-0.dtd" xmlns:svg="http://www.w3.org/2000/svg"
	 xmlns="http://www.w3.org/2000/svg" xmlns:xlink="http://www.w3.org/1999/xlink" x="0px" y="0px" viewBox="0 0 595.3 841.9"
	 style="enable-background:new 0 0 595.3 841.9;" xml:space="preserve">
<style type="text/css">
	.st0{fill:none;stroke:#000001;stroke-width:1.000000e-03;stroke-linecap:round;stroke-linejoin:round;}
	.st1{fill:none;stroke:#0000FF;stroke-width:1.000000e-03;}
	.st2{fill:#0000FF;stroke:#0000FF;}
</style>
<sodipodi:namedview  bordercolor="#666666" borderopacity="1.0" id="base" inkscape:current-layer="layer1" inkscape:cx="142.79201" inkscape:cy="583.64351" inkscape:document-units="mm" inkscape:guide-bbox="true" inkscape:object-paths="false" inkscape:pageopacity="0.0" inkscape:pageshadow="2" inkscape:snap-bbox="true" inkscape:snap-bbox-midpoints="true" inkscape:snap-intersection-paths="true" inkscape:snap-smooth-nodes="true" inkscape:window-height="1001" inkscape:window-maximized="1" inkscape:window-width="1920" inkscape:window-x="-9" inkscape:window-y="-9" inkscape:zoom="0.7066596" pagecolor="#ffffff" showgrid="true" showguides="true">
	<inkscape:grid  empspacing="4" id="grid4508" spacingx="1" spacingy="1" type="xygrid" units="mm"></inkscape:grid>
	<sodipodi:guide  id="guide4543" inkscape:locked="false" orientation="0,1" position="52,292"></sodipodi:guide>
	<sodipodi:guide  id="guide4545" inkscape:locked="false" orientation="0,1" position="28,244"></sodipodi:guide>
	<sodipodi:guide  id="guide4547" inkscape:locked="false" orientation="0,1" position="230,209"></sodipodi:guide>
	<sodipodi:guide  id="guide4549" inkscape:locked="false" orientation="1,0" position="222.06164,285.75001"></sodipodi:guide>
	<sodipodi:guide  id="guide4553" inkscape:locked="false" orientation="1,0" position="218.06164,264.75538"></sodipodi:guide>
	<sodipodi:guide  id="guide4594" inkscape:locked="false" orientation="1,0" position="178,217"></sodipodi:guide>
	<sodipodi:guide  id="guide4626" inkscape:locked="false" orientation="0,1" position="126,225"></sodipodi:guide>
	<sodipodi:guide  id="guide4630" inkscape:locked="false" orientation="1,0" position="202.06164,164.96909"></sodipodi:guide>
	<sodipodi:guide  id="guide4724" inkscape:locked="false" orientation="1,0" position="8,240"></sodipodi:guide>
	<sodipodi:guide  id="guide4771" inkscape:locked="false" orientation="0,1" position="32.8119,181.80122"></sodipodi:guide>
	<sodipodi:guide  id="guide4775" inkscape:locked="false" orientation="0,1" position="143,197.00001"></sodipodi:guide>
	<sodipodi:guide  id="guide4796" inkscape:locked="false" orientation="1,0" position="265,199"></sodipodi:guide>
	<sodipodi:guide  id="guide4808" inkscape:locked="false" orientation="1,0" position="295.99999,201.00002"></sodipodi:guide>
	<sodipodi:guide  id="guide4554" inkscape:locked="false" orientation="1,0" position="47.999999,240.00001"></sodipodi:guide>
</sodipodi:namedview>
<g id="g887" transform="rotate(-90,113.5,117.5)">
	<path id="rect4504" inkscape:connector-curvature="0" sodipodi:nodetypes="ccccccccccccccccc" class="st0" d="M-443.5,66.7V55.4
		h150.2v11.3h28.3h40.4h98.5V55.3h22.7v238.1v11.3H-126v-11.3h-167.2v11.3h-150.2L-443.5,66.7z"/>
	<path id="rect4510" inkscape:connector-curvature="0" sodipodi:nodetypes="ccccccccccccccc" class="st0" d="M-137.3,123.4v113.4
		h11.3V123.4H-137.3z M-126,236.8v45.4h11.3v-45.4L-126,236.8L-126,236.8z M-137.3,236.8h-11.3v45.4h11.3V236.8z"/>
	
		<rect id="rect4516" x="-143.1" y="95" transform="matrix(-2.535182e-06 -1 1 -2.535182e-06 -221.0366 -19.664)" class="st0" width="45.4" height="11.3"/>
	
		<rect id="rect4520" x="-165.7" y="95.1" transform="matrix(-2.535182e-06 -1 1 -2.535182e-06 -243.7368 -42.3184)" class="st0" width="45.4" height="11.3"/>
</g>
<g id="g4749" transform="rotate(90,164.65615,-64.656146)">
	<path id="rect4506" inkscape:connector-curvature="0" sodipodi:nodetypes="ccccccccccccccccccccc" class="st0" d="M351-200.8v11.3
		h-59.5v113.4V37.3H351v11.3h42.5V37.3h11.3V26v-45.4h11.3v-56.7v-56.7h-11.3v-45.4v-11.3h-11.3v-11.3L351-200.8L351-200.8z"/>
	
		<rect id="rect4578" x="342.6" y="-93.1" transform="matrix(2.535182e-06 1 -1 2.535182e-06 283.4724 -435.6333)" class="st0" width="34" height="34"/>
</g>
<g id="g4759" transform="rotate(-90,202.24272,206.24278)">
	<path id="path4564" inkscape:connector-curvature="0" sodipodi:nodetypes="cccccccccccccccccccccc" class="st0" d="M96.9,55.3v11.3
		H85.5V180v113.4h11.3v11.3h42.5v-11.3h59.5v-11.3h11.3v-45.4h-11.3V123.4h11.3V78h-11.3V66.7h-59.5V55.3H96.9z"/>
	<g id="g4660" transform="translate(133.42376,-162.88447)">
		
			<rect id="rect4596" x="18" y="313.9" transform="matrix(-2.535182e-06 -1 1 -2.535182e-06 -303.6776 343.9147)" class="st0" width="4.3" height="19.8"/>
		
			<rect id="rect4598" x="18" y="352.2" transform="matrix(-2.535182e-06 -1 1 -2.535182e-06 -341.9131 382.2149)" class="st0" width="4.3" height="19.8"/>
	</g>
</g>
<path id="path4562" inkscape:connector-curvature="0" sodipodi:nodetypes="ccccccccccccccccccccccccccccc" class="st0" d="
	M323.6,314.5h-11.3v-45.4h11.3v-11.3h-11.3V90.5h11.1V70.7v-8.5h11.5l201.5,172.9v34v102v102v34L335,680h-11.5v-8.5v-19.8h-11.2
	V484.5h11.3v-11.3h-11.3v-45.4h11.3v-56.7V314.5z"/>
<path id="path4570" inkscape:connector-curvature="0" class="st0" d="M460.2,371.1c0-13.3,10.8-24.1,24.1-24.1l0,0
	c13.3,0,24.1,10.8,24.1,24.1c0,13.3-10.8,24.1-24.1,24.1C471,395.2,460.2,384.5,460.2,371.1L460.2,371.1z"/>
<path id="path4584" inkscape:connector-curvature="0" class="st0" d="M358.7,371.1c0-5.7,4.6-10.3,10.3-10.3
	c5.7,0,10.3,4.6,10.3,10.3c0,5.7-4.6,10.3-10.3,10.3C363.3,381.4,358.7,376.8,358.7,371.1z"/>
<path id="path4765" inkscape:connector-curvature="0" class="st1" d="M536.2,257.8H323.6"/>
<path id="rect4790" inkscape:connector-curvature="0" class="st0" d="M377.6,257.8h-42.5v-11.3h42.5V257.8z"/>
<path id="rect4792" inkscape:connector-curvature="0" class="st0" d="M425.8,246.4h-42.5v-11.3h42.5V246.4z"/>
<path id="path4821" inkscape:connector-curvature="0" class="st1" d="M536.4,484.5H323.8"/>
<path id="rect4823" inkscape:connector-curvature="0" class="st0" d="M377.6,484.5h-42.5v11.3h42.5V484.5z"/>
<path id="rect4825" inkscape:connector-curvature="0" class="st0" d="M425.8,495.9h-42.5v11.3h42.5V495.9z"/>
<g id="flowRoot3789" transform="scale(0.26458333)">
</g>
<g id="flowRoot3797">
</g>
<rect id="rect3805" x="142" y="413.7" class="st2" width="11.3" height="11.3"/>
<rect id="rect3807" x="198.7" y="413.7" class="st2" width="11.3" height="11.3"/>
<rect id="rect3809" x="142" y="447.7" class="st2" width="11.3" height="11.3"/>
<rect id="rect3811" x="153.4" y="459" class="st2" width="45.4" height="11.3"/>
<rect id="rect3813" x="198.7" y="447.7" class="st2" width="11.3" height="11.3"/>
<path id="path3815" inkscape:flatsided="false" inkscape:randomized="0" inkscape:rounded="0" inkscape:transform-center-x="-0.3819646" inkscape:transform-center-y="-2.1291338e-006" sodipodi:arg1="0" sodipodi:arg2="0.62831853" sodipodi:cx="112" sodipodi:cy="169" sodipodi:r1="3.9999998" sodipodi:r2="2" sodipodi:sides="5" sodipodi:type="star" class="st2" d="
	M368.8,527.1l-6.8,3.3l-1.1,7.5l-5.3-5.4l-7.4,1.3l3.5-6.7l-3.5-6.7l7.4,1.3l5.3-5.4l1.1,7.5L368.8,527.1z"/>
<path id="path3817" inkscape:flatsided="false" inkscape:randomized="0" inkscape:rounded="0" inkscape:transform-center-x="0.41163984" inkscape:transform-center-y="0.45308277" sodipodi:arg1="0.46364761" sodipodi:arg2="1.0919661" sodipodi:cx="108" sodipodi:cy="181" sodipodi:r1="8.944272" sodipodi:r2="4.472136" sodipodi:sides="5" sodipodi:type="star" class="st2" d="
	M368.8,572.4l-16.8-0.1l-9.6,13.8l-5.1-16l-16.1-4.9l13.7-9.8l-0.3-16.8l13.6,10l15.9-5.5l-5.3,16L368.8,572.4z"/>
<path id="path3819" inkscape:flatsided="false" inkscape:randomized="0" inkscape:rounded="0" inkscape:transform-center-x="1.511811e-006" inkscape:transform-center-y="0.38196378" sodipodi:arg1="1.5707963" sodipodi:arg2="2.1991149" sodipodi:cx="120" sodipodi:cy="177" sodipodi:r1="3.9999998" sodipodi:r2="2" sodipodi:sides="5" sodipodi:type="star" class="st2" d="
	M380.2,561.1l-3.3-6.8l-7.5-1.1l5.4-5.3l-1.3-7.4l6.7,3.5l6.7-3.5l-1.3,7.4l5.4,5.3l-7.5,1.1L380.2,561.1z"/>
<path id="path3815-2" inkscape:flatsided="false" inkscape:randomized="0" inkscape:rounded="0" inkscape:transform-center-x="-0.3819646" inkscape:transform-center-y="-2.1291338e-006" sodipodi:arg1="0" sodipodi:arg2="0.62831853" sodipodi:cx="114.24176" sodipodi:cy="43.504185" sodipodi:r1="3.9999995" sodipodi:r2="2" sodipodi:sides="5" sodipodi:type="star" class="st2" d="
	M375.2,171.3l-6.8,3.3l-1.1,7.5l-5.3-5.4l-7.4,1.3l3.5-6.7l-3.5-6.7l7.4,1.3l5.3-5.4l1.1,7.5L375.2,171.3z"/>
<path id="path3817-0" inkscape:flatsided="false" inkscape:randomized="0" inkscape:rounded="0" inkscape:transform-center-x="0.41163984" inkscape:transform-center-y="0.45308277" sodipodi:arg1="0.46364761" sodipodi:arg2="1.0919661" sodipodi:cx="110.24176" sodipodi:cy="55.5042" sodipodi:r1="8.944272" sodipodi:r2="4.472136" sodipodi:sides="5" sodipodi:type="star" class="st2" d="
	M375.2,216.7l-16.8-0.1l-9.6,13.8l-5.1-16l-16.1-4.9l13.7-9.8l-0.3-16.8l13.6,10l15.9-5.5l-5.3,16L375.2,216.7z"/>
<path id="path3819-8" inkscape:flatsided="false" inkscape:randomized="0" inkscape:rounded="0" inkscape:transform-center-x="1.511811e-006" inkscape:transform-center-y="0.38196378" sodipodi:arg1="1.5707963" sodipodi:arg2="2.1991149" sodipodi:cx="122.24179" sodipodi:cy="51.504193" sodipodi:r1="3.9999995" sodipodi:r2="2" sodipodi:sides="5" sodipodi:type="star" class="st2" d="
	M386.5,205.3l-3.3-6.8l-7.5-1.1l5.4-5.3l-1.3-7.4l6.7,3.5l6.7-3.5l-1.3,7.4l5.4,5.3l-7.5,1.1L386.5,205.3z"/>
</svg>
